<svg width="25" height="17" viewBox="0 0 25 17" fill="none" xmlns="http://www.w3.org/2000/svg">
<g clip-path="url(#clip0_201_140)">
<g clip-path="url(#clip1_201_140)">
<path fill-rule="evenodd" clip-rule="evenodd" d="M11.0013 0.346252H5.66793V1.01292H8.00126V3.68779C4.47423 3.86145 1.66793 6.77612 1.66793 10.3463V11.0129V11.6796H14.3346H15.0011L15.0013 11.0129V10.3463C15.0013 6.77612 12.195 3.86145 8.66793 3.68779V1.01292H11.0013V0.346252ZM14.3346 10.3463C14.3346 7.03255 11.6483 4.34625 8.33459 4.34625C5.02089 4.34625 2.33459 7.03255 2.33459 10.3463V11.0129H14.3344L14.3346 10.3463ZM16.3346 15.6796V16.3463H0.334595V15.6796H0.667928V15.5804L2.14272 13.3463H14.5101L15.9985 15.5796V15.6796H16.3346ZM15.264 15.6796L14.1532 14.0129H2.50147L1.40129 15.6796H15.264Z" fill="black"/>
<mask id="mask0_201_140" style="mask-type:alpha" maskUnits="userSpaceOnUse" x="0" y="0" width="17" height="17">
<path fill-rule="evenodd" clip-rule="evenodd" d="M11.0013 0.346252H5.66793V1.01292H8.00126V3.68779C4.47423 3.86145 1.66793 6.77612 1.66793 10.3463V11.0129V11.6796H14.3346H15.0011L15.0013 11.0129V10.3463C15.0013 6.77612 12.195 3.86145 8.66793 3.68779V1.01292H11.0013V0.346252ZM14.3346 10.3463C14.3346 7.03255 11.6483 4.34625 8.33459 4.34625C5.02089 4.34625 2.33459 7.03255 2.33459 10.3463V11.0129H14.3344L14.3346 10.3463ZM16.3346 15.6796V16.3463H0.334595V15.6796H0.667928V15.5804L2.14272 13.3463H14.5101L15.9985 15.5796V15.6796H16.3346ZM15.264 15.6796L14.1532 14.0129H2.50147L1.40129 15.6796H15.264Z" fill="white"/>
</mask>
<g mask="url(#mask0_201_140)">
<path d="M16.3346 0.346252H0.334595V16.3463H16.3346V0.346252Z" fill="black"/>
</g>
</g>
</g>
<defs>
<clipPath id="clip0_201_140">
<rect width="16" height="16" fill="white" transform="translate(0.334595 0.346252)"/>
</clipPath>
<clipPath id="clip1_201_140">
<rect width="16" height="16" fill="white" transform="translate(0.334595 0.346252)"/>
</clipPath>
</defs>
</svg>
