<svg width="41" height="41" viewBox="0 0 41 41" fill="none" xmlns="http://www.w3.org/2000/svg">
<g clip-path="url(#clip0_201_292)">
<g clip-path="url(#clip1_201_292)">
<path fill-rule="evenodd" clip-rule="evenodd" d="M17.0349 15.1046C17.2654 13.4887 18.6549 12.2463 20.3346 12.2463C22.015 12.2463 23.405 13.4898 23.6346 15.1067C25.4499 15.2566 27.0011 17.0633 27.0011 19.3571C27.0011 23.039 23.6678 26.5789 20.3345 28.2451C16.9978 26.5767 13.6679 23.039 13.6679 19.3571C13.6679 17.064 15.2201 15.2556 17.0349 15.1046ZM22.9631 15.1276C22.7484 13.8702 21.6533 12.913 20.3346 12.913C19.0168 12.913 17.9222 13.8689 17.7065 15.1252C18.4483 15.2327 19.2069 15.6266 19.9005 16.3814L20.0252 16.5219C20.0252 16.5219 20.2332 16.7747 20.3345 16.9142C20.436 16.7748 20.6444 16.5223 20.6444 16.5223L20.7693 16.3821C21.4633 15.6288 22.2217 15.2354 22.9631 15.1276ZM20.3345 27.495C23.725 25.688 26.3344 22.3601 26.3344 19.3572C26.3344 15.9721 22.9659 14.4336 20.8734 17.3067L20.3337 18.0478L19.795 17.3059C17.7071 14.43 14.3346 15.9712 14.3346 19.3572C14.3346 22.3608 16.9418 25.6866 20.3345 27.495Z" fill="black"/>
</g>
</g>
<defs>
<clipPath id="clip0_201_292">
<rect width="16" height="16" fill="white" transform="translate(12.3346 12.2463)"/>
</clipPath>
<clipPath id="clip1_201_292">
<rect width="16" height="16" fill="white" transform="translate(12.3346 12.2463)"/>
</clipPath>
</defs>
</svg>
