<svg width="57" height="17" viewBox="0 0 57 17" fill="none" xmlns="http://www.w3.org/2000/svg">
<g clip-path="url(#clip0_201_113)">
<g clip-path="url(#clip1_201_113)">
<path fill-rule="evenodd" clip-rule="evenodd" d="M6.33459 12.3463C3.02088 12.3463 0.334595 9.65995 0.334595 6.34625C0.334595 3.03254 3.02088 0.346252 6.33459 0.346252C9.6483 0.346252 12.3346 3.03254 12.3346 6.34625C12.3346 7.88315 11.7567 9.28512 10.8064 10.3467L16.1393 15.6796L15.6679 16.151L10.335 10.8181C9.27346 11.7684 7.87149 12.3463 6.33459 12.3463ZM6.33459 11.6796C9.28013 11.6796 11.6679 9.29179 11.6679 6.34625C11.6679 3.40073 9.28013 1.01292 6.33459 1.01292C3.38907 1.01292 1.00126 3.40073 1.00126 6.34625C1.00126 9.29179 3.38907 11.6796 6.33459 11.6796Z" fill="black"/>
<mask id="mask0_201_113" style="mask-type:alpha" maskUnits="userSpaceOnUse" x="0" y="0" width="17" height="17">
<path fill-rule="evenodd" clip-rule="evenodd" d="M6.33459 12.3463C3.02088 12.3463 0.334595 9.65995 0.334595 6.34625C0.334595 3.03254 3.02088 0.346252 6.33459 0.346252C9.6483 0.346252 12.3346 3.03254 12.3346 6.34625C12.3346 7.88315 11.7567 9.28512 10.8064 10.3467L16.1393 15.6796L15.6679 16.151L10.335 10.8181C9.27346 11.7684 7.87149 12.3463 6.33459 12.3463ZM6.33459 11.6796C9.28013 11.6796 11.6679 9.29179 11.6679 6.34625C11.6679 3.40073 9.28013 1.01292 6.33459 1.01292C3.38907 1.01292 1.00126 3.40073 1.00126 6.34625C1.00126 9.29179 3.38907 11.6796 6.33459 11.6796Z" fill="white"/>
</mask>
<g mask="url(#mask0_201_113)">
<path d="M16.3346 0.346252H0.334595V16.3463H16.3346V0.346252Z" fill="black"/>
</g>
</g>
</g>
<defs>
<clipPath id="clip0_201_113">
<rect width="16" height="16" fill="white" transform="translate(0.334595 0.346252)"/>
</clipPath>
<clipPath id="clip1_201_113">
<rect width="16" height="16" fill="white" transform="translate(0.334595 0.346252)"/>
</clipPath>
</defs>
</svg>
