<svg width="17" height="17" viewBox="0 0 17 17" fill="none" xmlns="http://www.w3.org/2000/svg">
<g clip-path="url(#clip0_201_127)">
<g clip-path="url(#clip1_201_127)">
<path fill-rule="evenodd" clip-rule="evenodd" d="M2.33459 6.34625C2.33459 9.68219 5.00126 13.6796 8.33459 16.3458C11.6679 13.6796 14.3346 9.65995 14.3346 6.34625C14.3346 3.03254 11.6483 0.346252 8.33459 0.346252C5.02089 0.346252 2.33459 3.03254 2.33459 6.34625ZM8.33459 1.01292C11.2801 1.01292 13.6679 3.40073 13.6679 6.34625C13.6679 9.15735 11.482 12.8105 8.33453 15.4821C5.17839 12.805 3.00126 9.17135 3.00126 6.34625C3.00126 3.40073 5.38906 1.01292 8.33459 1.01292ZM8.33459 9.01292C6.86183 9.01292 5.66793 7.81902 5.66793 6.34625C5.66793 4.87349 6.86183 3.67959 8.33459 3.67959C9.80736 3.67959 11.0013 4.87349 11.0013 6.34625C11.0013 7.81902 9.80736 9.01292 8.33459 9.01292ZM10.3346 6.34625C10.3346 7.45082 9.43916 8.34625 8.33459 8.34625C7.23003 8.34625 6.33459 7.45082 6.33459 6.34625C6.33459 5.24169 7.23003 4.34625 8.33459 4.34625C9.43916 4.34625 10.3346 5.24169 10.3346 6.34625Z" fill="black"/>
<mask id="mask0_201_127" style="mask-type:alpha" maskUnits="userSpaceOnUse" x="2" y="0" width="13" height="17">
<path fill-rule="evenodd" clip-rule="evenodd" d="M2.33459 6.34625C2.33459 9.68219 5.00126 13.6796 8.33459 16.3458C11.6679 13.6796 14.3346 9.65995 14.3346 6.34625C14.3346 3.03254 11.6483 0.346252 8.33459 0.346252C5.02089 0.346252 2.33459 3.03254 2.33459 6.34625ZM8.33459 1.01292C11.2801 1.01292 13.6679 3.40073 13.6679 6.34625C13.6679 9.15735 11.482 12.8105 8.33453 15.4821C5.17839 12.805 3.00126 9.17135 3.00126 6.34625C3.00126 3.40073 5.38906 1.01292 8.33459 1.01292ZM8.33459 9.01292C6.86183 9.01292 5.66793 7.81902 5.66793 6.34625C5.66793 4.87349 6.86183 3.67959 8.33459 3.67959C9.80736 3.67959 11.0013 4.87349 11.0013 6.34625C11.0013 7.81902 9.80736 9.01292 8.33459 9.01292ZM10.3346 6.34625C10.3346 7.45082 9.43916 8.34625 8.33459 8.34625C7.23003 8.34625 6.33459 7.45082 6.33459 6.34625C6.33459 5.24169 7.23003 4.34625 8.33459 4.34625C9.43916 4.34625 10.3346 5.24169 10.3346 6.34625Z" fill="white"/>
</mask>
<g mask="url(#mask0_201_127)">
<path d="M16.3346 0.346252H0.334595V16.3463H16.3346V0.346252Z" fill="black"/>
</g>
</g>
</g>
<defs>
<clipPath id="clip0_201_127">
<rect width="16" height="16" fill="white" transform="translate(0.334595 0.346252)"/>
</clipPath>
<clipPath id="clip1_201_127">
<rect width="16" height="16" fill="white" transform="translate(0.334595 0.346252)"/>
</clipPath>
</defs>
</svg>
