<svg width="17" height="17" viewBox="0 0 17 17" fill="none" xmlns="http://www.w3.org/2000/svg">
<g clip-path="url(#clip0_201_196)">
<g clip-path="url(#clip1_201_196)">
<path fill-rule="evenodd" clip-rule="evenodd" d="M4.33457 4.34625C4.33457 6.55539 6.12544 8.34625 8.33457 8.34625C10.5437 8.34625 12.3346 6.55539 12.3346 4.34625C12.3346 2.13711 10.5437 0.346252 8.33457 0.346252C6.12544 0.346252 4.33457 2.13711 4.33457 4.34625ZM11.6679 4.34625C11.6679 6.18719 10.1755 7.67959 8.33457 7.67959C6.49364 7.67959 5.00124 6.18719 5.00124 4.34625C5.00124 2.5053 6.49364 1.01292 8.33457 1.01292C10.1755 1.01292 11.6679 2.5053 11.6679 4.34625ZM2.33457 16.3463C2.33457 13.0326 5.02087 10.3463 8.33457 10.3463C11.6483 10.3463 14.3346 13.0326 14.3346 16.3463H15.0012C15.0012 12.6644 12.0165 9.67959 8.33457 9.67959C4.65267 9.67959 1.66791 12.6644 1.66791 16.3463H2.33457Z" fill="black"/>
<mask id="mask0_201_196" style="mask-type:alpha" maskUnits="userSpaceOnUse" x="1" y="0" width="15" height="17">
<path fill-rule="evenodd" clip-rule="evenodd" d="M4.33457 4.34625C4.33457 6.55539 6.12544 8.34625 8.33457 8.34625C10.5437 8.34625 12.3346 6.55539 12.3346 4.34625C12.3346 2.13711 10.5437 0.346252 8.33457 0.346252C6.12544 0.346252 4.33457 2.13711 4.33457 4.34625ZM11.6679 4.34625C11.6679 6.18719 10.1755 7.67959 8.33457 7.67959C6.49364 7.67959 5.00124 6.18719 5.00124 4.34625C5.00124 2.5053 6.49364 1.01292 8.33457 1.01292C10.1755 1.01292 11.6679 2.5053 11.6679 4.34625ZM2.33457 16.3463C2.33457 13.0326 5.02087 10.3463 8.33457 10.3463C11.6483 10.3463 14.3346 13.0326 14.3346 16.3463H15.0012C15.0012 12.6644 12.0165 9.67959 8.33457 9.67959C4.65267 9.67959 1.66791 12.6644 1.66791 16.3463H2.33457Z" fill="white"/>
</mask>
<g mask="url(#mask0_201_196)">
<path d="M16.3346 0.346252H0.334595V16.3463H16.3346V0.346252Z" fill="black"/>
</g>
</g>
</g>
<defs>
<clipPath id="clip0_201_196">
<rect width="16" height="16" fill="white" transform="translate(0.334595 0.346252)"/>
</clipPath>
<clipPath id="clip1_201_196">
<rect width="16" height="16" fill="white" transform="translate(0.334595 0.346252)"/>
</clipPath>
</defs>
</svg>
