<svg width="3185" height="532" viewBox="0 0 3185 532" fill="none" xmlns="http://www.w3.org/2000/svg">
<g clip-path="url(#clip0_201_154)">
<g clip-path="url(#clip1_201_154)">
<path d="M2082.1 511.966C2082.1 517.833 2081.34 522.425 2078.53 524.976C2075.98 527.016 2071.13 527.526 2063.74 527.526C2063.23 527.526 2063.23 529.567 2063.74 529.567H2119.85C2120.36 529.567 2120.36 527.526 2119.85 527.526C2112.46 527.526 2107.61 527.016 2105.06 524.976C2102 522.425 2101.49 517.833 2101.49 511.966V427.789C2101.49 421.922 2102.25 417.33 2105.06 414.779C2107.61 412.739 2112.46 412.229 2119.85 412.229C2120.36 412.229 2120.36 410.188 2119.85 410.188H2063.74C2063.23 410.188 2063.23 412.229 2063.74 412.229C2071.13 412.229 2075.98 412.739 2078.53 414.779C2081.59 417.33 2082.1 421.922 2082.1 427.789V511.966Z" fill="#231F20"/>
<path d="M2044.86 377.792L2045.12 416.82C2045.12 417.33 2043.33 417.585 2043.33 417.075C2033.64 393.097 2026.49 381.108 1996.65 381.108H1993.33V510.436C1993.33 516.813 1994.1 521.149 1997.41 524.21C1999.71 526.251 2007.87 527.271 2014.51 527.271C2014.76 527.271 2015.02 529.567 2014.51 529.567H1952.01C1951.5 529.567 1951.75 527.271 1952.01 527.271C1958.64 527.271 1966.8 526.251 1969.1 524.21C1972.42 521.149 1972.93 516.813 1972.93 510.436V381.108H1969.61C1939.77 381.108 1932.62 393.097 1922.93 417.075C1922.93 417.33 1920.89 417.075 1921.14 416.82L1921.4 377.792H2044.86Z" fill="#231F20"/>
<path d="M2229.03 410.188H2142.3C2141.79 410.188 2142.05 412.229 2142.3 412.229C2148.93 412.229 2153.53 412.739 2155.82 414.779C2158.63 417.33 2159.14 421.922 2159.14 427.789V511.966C2159.14 517.833 2158.63 522.425 2155.82 524.976C2153.53 527.016 2148.93 527.526 2142.3 527.526C2142.05 527.526 2141.79 529.567 2142.3 529.567H2196.89C2197.4 529.567 2197.4 527.526 2196.89 527.526C2189.49 527.526 2184.65 527.016 2182.1 524.976C2179.03 522.425 2178.52 517.833 2178.52 511.966V470.643H2186.69C2195.87 470.643 2200.72 472.173 2204.54 475.234C2208.11 478.55 2210.15 483.142 2210.41 487.988C2210.41 488.499 2211.94 488.499 2212.2 487.988V450.236C2211.69 449.726 2210.41 449.726 2210.41 450.236C2210.41 455.083 2208.37 459.674 2204.54 462.99C2200.72 466.051 2195.87 467.582 2186.69 467.582H2178.27V413.249H2189.49C2216.53 413.249 2223.42 426.258 2227.5 441.053C2227.5 441.308 2229.03 441.053 2229.03 440.798V410.188Z" fill="#231F20"/>
<path d="M2332.34 410.188H2245.61C2245.1 410.188 2245.36 412.229 2245.61 412.229C2252.24 412.229 2256.83 412.739 2259.13 414.779C2261.68 417.33 2262.45 421.922 2262.45 427.789V511.966C2262.45 517.833 2261.94 522.425 2259.13 524.976C2256.83 527.016 2252.24 527.526 2245.61 527.526C2245.36 527.526 2245.1 529.567 2245.61 529.567H2300.2C2300.71 529.567 2300.45 527.526 2300.2 527.526C2292.8 527.526 2287.96 527.016 2285.4 524.976C2282.34 522.425 2281.83 517.833 2281.83 511.966V470.643H2290.25C2299.43 470.643 2304.28 472.173 2308.11 475.234C2311.68 478.55 2313.72 483.142 2313.97 487.988C2313.97 488.499 2315.5 488.499 2316.01 487.988V450.236C2315.5 449.726 2313.97 449.726 2313.97 450.236C2313.97 455.083 2311.93 459.674 2308.11 462.99C2304.28 466.051 2299.43 467.582 2290.25 467.582H2281.83V413.249H2293.06C2320.1 413.249 2326.98 426.258 2331.06 441.053C2331.06 441.308 2332.59 441.053 2332.59 440.798L2332.34 410.188Z" fill="#231F20"/>
<path d="M2448.15 527.526C2438.45 526.506 2435.9 523.19 2431.57 511.966L2392.03 407.127C2392.03 406.617 2389.22 406.617 2389.22 407.127L2350.45 509.671C2345.09 523.19 2341.27 524.976 2329.53 527.526C2329.28 527.526 2329.02 529.567 2329.53 529.567H2364.99C2365.25 529.567 2365.25 527.526 2364.99 527.526C2354.79 527.016 2349.69 522.935 2354.79 509.671L2363.72 485.438H2401.98L2411.42 510.181C2415.75 521.404 2411.42 526.761 2400.7 527.271C2400.45 527.271 2400.19 529.312 2400.7 529.312H2447.89C2448.66 529.567 2448.66 527.526 2448.15 527.526ZM2364.99 482.377L2382.59 434.676L2400.7 482.377H2364.99Z" fill="#231F20"/>
<path d="M2573.14 410.188H2532.84C2532.33 410.188 2532.58 412.229 2532.84 412.229C2541.76 412.994 2546.1 413.759 2548.4 417.84C2550.95 422.432 2552.22 430.339 2552.22 440.543V498.447L2484.88 410.188H2451.72C2451.21 410.188 2451.46 412.229 2451.72 412.229C2464.22 412.229 2470.34 419.371 2470.34 429.574V498.957C2470.34 509.415 2469.57 517.068 2467.02 521.659C2464.73 525.741 2462.43 526.506 2454.01 527.271C2453.76 527.271 2453.76 529.312 2454.01 529.312H2493.81C2494.32 529.312 2494.06 527.271 2493.81 527.271C2484.88 526.506 2480.54 525.741 2478.25 521.659C2475.7 517.068 2474.42 509.16 2474.42 498.957V428.299L2553.75 530.332C2554.52 531.353 2556.3 531.098 2556.3 530.332V440.798C2556.3 430.339 2556.81 422.687 2559.62 418.095C2561.92 414.014 2564.21 413.249 2573.14 412.484C2573.39 412.229 2573.39 410.188 2573.14 410.188Z" fill="#231F20"/>
<path d="M2692.52 410.188H2658.59C2658.08 410.188 2658.34 412.229 2658.59 412.229C2669.31 412.484 2673.13 416.565 2669.31 424.473L2645.33 470.388L2619.31 423.707C2615.48 416.055 2619.56 412.229 2630.53 412.229C2630.79 412.229 2630.79 410.188 2630.53 410.188H2581.81C2581.3 410.188 2581.56 412.229 2581.81 412.229C2591.5 412.994 2594.06 415.29 2597.88 422.687L2627.73 477.275V511.711C2627.73 517.578 2627.22 522.17 2624.41 524.721C2622.11 526.761 2617.52 527.271 2610.89 527.271C2610.64 527.271 2610.64 529.312 2610.89 529.312H2663.95C2664.46 529.312 2664.2 527.271 2663.95 527.271C2657.32 527.271 2652.72 526.761 2650.43 524.721C2647.88 522.17 2647.11 517.578 2647.11 511.711V473.704L2673.9 424.217C2678.49 415.29 2682.57 412.994 2692.26 412.229C2692.77 412.229 2693.03 410.188 2692.52 410.188Z" fill="#231F20"/>
<path d="M3097.08 408.402C3130.24 408.402 3156.77 435.696 3156.77 469.622C3156.77 503.548 3130.24 530.842 3097.08 530.842C3063.92 530.842 3037.39 503.548 3037.39 469.622C3037.39 435.696 3063.92 408.402 3097.08 408.402ZM3096.83 411.463C3072.59 411.463 3060.09 436.206 3060.09 469.877C3060.09 503.548 3072.59 528.292 3096.83 528.292C3121.06 528.292 3133.56 503.548 3133.56 469.877C3133.56 436.206 3121.31 411.463 3096.83 411.463Z" fill="#231F20"/>
<path d="M3019.28 485.182C3019.28 484.672 3017.75 484.417 3017.49 485.438C3011.88 512.221 2992.24 528.292 2974.13 528.292C2939.44 528.292 2917.25 497.171 2917.25 454.317C2917.25 411.463 2936.63 379.578 2971.32 379.578C2990.71 379.578 3010.86 394.373 3016.73 420.391C3016.73 420.646 3018.77 420.391 3018.52 420.136L3017.24 375.752C3017.24 375.496 3015.2 375.241 3015.2 375.752C3014.43 382.384 3010.35 386.21 3003.47 383.659C2993.52 379.833 2982.29 376.007 2970.81 376.007C2927.71 376.007 2891.23 411.208 2891.23 454.317C2891.23 497.426 2927.71 531.863 2970.81 531.863C2988.93 531.863 3004.49 527.781 3017.24 518.854L3019.28 485.182Z" fill="#231F20"/>
<path d="M3172.33 507.375C3178.96 507.12 3184.32 512.476 3184.57 519.109C3184.83 525.741 3179.47 531.098 3172.84 531.353C3166.21 531.608 3160.85 526.251 3160.6 519.619V519.364C3160.6 512.987 3165.7 507.63 3172.33 507.375Z" fill="#231F20"/>
<path d="M2855.26 458.144H2807.56C2807.31 458.144 2807.31 460.184 2807.56 460.184C2819.04 460.184 2825.93 464.521 2821.59 473.959C2818.27 481.101 2814.19 487.733 2809.6 493.855L2774.66 448.961C2795.06 439.012 2806.03 429.319 2806.03 413.249C2806.03 402.025 2793.79 389.526 2777.21 389.526C2759.61 389.526 2744.3 404.321 2744.3 420.136C2744.3 430.595 2747.11 437.737 2757.05 452.787C2737.16 460.184 2719.81 476.255 2719.81 495.131C2719.81 516.303 2736.65 531.353 2759.09 531.353C2775.68 531.353 2788.94 522.425 2800.42 510.436L2814.7 529.057H2849.9C2850.41 529.057 2850.16 527.016 2849.9 527.016C2843.27 527.016 2841.49 526.506 2837.66 524.465C2832.3 521.149 2827.46 516.813 2823.63 511.456L2812.15 496.661C2818.78 487.733 2824.91 478.55 2830.77 470.388C2835.11 464.266 2839.96 461.205 2855.77 460.184C2855.77 460.439 2856.03 458.399 2855.26 458.144ZM2777.97 393.607C2788.94 393.607 2795.57 402.025 2795.57 415.545C2795.57 427.534 2785.62 441.053 2772.36 446.155C2762.41 431.87 2760.37 422.942 2760.37 414.779C2760.37 399.474 2767 393.862 2777.97 393.607ZM2739.45 487.478C2739.45 472.428 2746.34 462.225 2759.09 456.103L2797.87 507.63C2788.68 516.048 2778.74 521.659 2769.3 521.659C2752.72 521.404 2739.45 507.63 2739.45 487.478Z" fill="#231F20"/>
</g>
</g>
<defs>
<clipPath id="clip0_201_154">
<rect width="1262.92" height="156.98" fill="white" transform="translate(1921.14 374.986)"/>
</clipPath>
<clipPath id="clip1_201_154">
<rect width="1262.92" height="156.621" fill="white" transform="translate(1921.14 374.986)"/>
</clipPath>
</defs>
</svg>
