<svg width="17" height="17" viewBox="0 0 17 17" fill="none" xmlns="http://www.w3.org/2000/svg">
<g clip-path="url(#clip0_201_214)">
<g clip-path="url(#clip1_201_214)">
<path fill-rule="evenodd" clip-rule="evenodd" d="M5.03484 3.20451C5.26541 1.58859 6.65491 0.346252 8.33457 0.346252C10.015 0.346252 11.4049 1.58967 11.6346 3.20662C13.4498 3.35647 15.001 5.16325 15.001 7.45705C15.001 11.1389 11.6678 14.6788 8.33447 16.3451C4.99781 14.6767 1.66791 11.1389 1.66791 7.45705C1.66791 5.16392 3.22006 3.35554 5.03484 3.20451ZM10.9631 3.22754C10.7484 1.97008 9.65324 1.01292 8.33457 1.01292C7.01674 1.01292 5.92221 1.96883 5.70647 3.22509C6.44827 3.33261 7.20691 3.72655 7.90051 4.48135L8.02517 4.62179C8.02517 4.62179 8.23321 4.87459 8.33447 5.01409C8.43594 4.87475 8.64434 4.62225 8.64434 4.62225L8.76924 4.48199C9.46327 3.72875 10.2217 3.33529 10.9631 3.22754ZM8.33451 15.5949C11.725 13.788 14.3344 10.46 14.3344 7.45712C14.3344 4.07199 10.9658 2.53351 8.87337 5.40662L8.33364 6.14772L7.79501 5.40582C5.70711 2.52993 2.33457 4.07115 2.33457 7.45712C2.33457 10.4608 4.94181 13.7865 8.33451 15.5949Z" fill="black"/>
</g>
</g>
<defs>
<clipPath id="clip0_201_214">
<rect width="16" height="16" fill="white" transform="translate(0.334595 0.346252)"/>
</clipPath>
<clipPath id="clip1_201_214">
<rect width="16" height="16" fill="white" transform="translate(0.334595 0.346252)"/>
</clipPath>
</defs>
</svg>
