<svg width="17" height="17" viewBox="0 0 17 17" fill="none" xmlns="http://www.w3.org/2000/svg">
<g clip-path="url(#clip0_201_226)">
<g clip-path="url(#clip1_201_226)">
<path fill-rule="evenodd" clip-rule="evenodd" d="M5.66791 3.67959C5.66791 2.20683 6.86181 1.01292 8.33457 1.01292C9.80734 1.01292 11.0012 2.20683 11.0012 3.67959V4.34625H5.66791V3.67959ZM11.6679 4.34625H15.0012V16.3463H1.66791V4.34625H5.00124V3.67959C5.00124 1.83864 6.49364 0.346252 8.33457 0.346252C10.1755 0.346252 11.6679 1.83864 11.6679 3.67959V4.34625ZM11.0012 5.01292V7.01292H11.6679V5.01292H14.3346V15.6796H2.33457V5.01292H5.00124V7.01292H5.66791V5.01292H11.0012Z" fill="black"/>
</g>
</g>
<defs>
<clipPath id="clip0_201_226">
<rect width="16" height="16" fill="white" transform="translate(0.334595 0.346252)"/>
</clipPath>
<clipPath id="clip1_201_226">
<rect width="16" height="16" fill="white" transform="translate(0.334595 0.346252)"/>
</clipPath>
</defs>
</svg>
